<?xml version="1.0" encoding="utf-8"?>
<!-- Generator: Adobe Illustrator 27.0.0, SVG Export Plug-In . SVG Version: 6.00 Build 0)  -->
<svg version="1.1" id="Layer_1" xmlns="http://www.w3.org/2000/svg" xmlns:xlink="http://www.w3.org/1999/xlink" x="0px" y="0px"
	 viewBox="0 0 250 250" enable-background="new 0 0 250 250" xml:space="preserve">
<g id="gr_x5F_icon28_x5F_codeField">
	<g id="gr_x5F_big_00000012459340353210567330000016755844969975238303_">
		<path id="gr_00000163756894505728190010000010000365103403575430_" fill="#F3BA48" d="M237.666,172.701
			c0,9.543-6.757,21.247-15.022,26.018l-82.62,47.701c-8.263,4.771-21.785,4.771-30.044,0l-82.625-47.7
			c-8.263-4.771-15.021-16.476-15.021-26.018V77.299c0-9.542,6.759-21.247,15.021-26.018l82.624-47.702
			c8.259-4.771,21.781-4.771,30.044,0l82.62,47.702c8.266,4.771,15.022,16.476,15.022,26.018L237.666,172.701L237.666,172.701z"/>
		<path fill="#FFFFFF" d="M68.615,134.717c0-4.049-4.05-5.759-6.209-6.119c-0.72-0.09-1.35-0.72-1.35-1.62v-4.41
			c0-0.9,0.63-1.35,1.26-1.53c0.81-0.18,6.3-2.34,6.3-6.209v-11.43c0-19.799,13.05-24.389,22.319-24.749
			c0.99-0.09,1.71,0.45,1.8,1.53l0.36,5.67c0.09,0.99-0.63,1.53-1.26,1.62c-7.02,1.53-12.06,6.75-12.06,15.929v9.45
			c0,7.74-6.66,11.339-7.47,11.7v0.36c2.43,0.99,7.47,3.959,7.47,11.25v9.63c0,9.18,5.04,14.309,12.06,15.749
			c0.63,0.18,1.35,0.72,1.26,1.71l-0.36,5.67c-0.09,0.899-0.9,1.62-1.8,1.529c-9.27-0.359-22.319-4.859-22.319-24.658
			L68.615,134.717L68.615,134.717z M169.503,136.157c0-7.29,5.04-10.26,7.47-11.25v-0.36c-0.81-0.36-7.47-3.96-7.47-11.7v-9.45
			c0-9.18-5.04-14.399-12.06-15.929c-0.63-0.09-1.35-0.63-1.26-1.62l0.36-5.67c0.09-1.08,0.81-1.62,1.8-1.53
			c9.27,0.36,22.318,4.95,22.318,24.749v11.43c0,3.87,5.49,6.03,6.3,6.209c0.631,0.18,1.261,0.63,1.261,1.53v4.41
			c0,0.9-0.63,1.53-1.351,1.62c-2.16,0.36-6.21,2.07-6.21,6.119v11.07c0,19.799-13.049,24.299-22.318,24.658
			c-0.9,0.091-1.71-0.63-1.8-1.529l-0.36-5.67c-0.09-0.99,0.63-1.53,1.26-1.71c7.02-1.44,12.06-6.569,12.06-15.749V136.157z"/>
	</g>
</g>
</svg>
